<svg width="30" height="8" viewBox="0 0 30 8" fill="none" xmlns="http://www.w3.org/2000/svg">
<path d="M1 3.5C0.723858 3.5 0.5 3.72386 0.5 4C0.5 4.27614 0.723858 4.5 1 4.5L1 3.5ZM29.3536 4.35355C29.5488 4.15829 29.5488 3.8417 29.3536 3.64644L26.1716 0.464462C25.9763 0.2692 25.6597 0.2692 25.4645 0.464462C25.2692 0.659724 25.2692 0.976306 25.4645 1.17157L28.2929 4L25.4645 6.82842C25.2692 7.02368 25.2692 7.34027 25.4645 7.53553C25.6597 7.73079 25.9763 7.73079 26.1716 7.53553L29.3536 4.35355ZM1 4.5C1.02136 4.5 1.0427 4.5 1.06402 4.5C1.08534 4.5 1.10664 4.5 1.12792 4.5C1.14921 4.5 1.17047 4.5 1.19172 4.5C1.21297 4.5 1.2342 4.5 1.25541 4.5C1.27662 4.5 1.29781 4.5 1.31899 4.5C1.34016 4.5 1.36132 4.5 1.38246 4.5C1.4036 4.5 1.42472 4.5 1.44582 4.5C1.46693 4.5 1.48801 4.5 1.50908 4.5C1.53015 4.5 1.5512 4.5 1.57223 4.5C1.59327 4.5 1.61428 4.5 1.63528 4.5C1.65628 4.5 1.67726 4.5 1.69822 4.5C1.71918 4.5 1.74012 4.5 1.76105 4.5C1.78198 4.5 1.80289 4.5 1.82378 4.5C1.84467 4.5 1.86555 4.5 1.88641 4.5C1.90726 4.5 1.9281 4.5 1.94893 4.5C1.96975 4.5 1.99056 4.5 2.01135 4.5C2.03213 4.5 2.05291 4.5 2.07366 4.5C2.09441 4.5 2.11515 4.5 2.13587 4.5C2.15659 4.5 2.1773 4.5 2.19798 4.5C2.21867 4.5 2.23934 4.5 2.25999 4.5C2.28064 4.5 2.30128 4.5 2.3219 4.5C2.34251 4.5 2.36312 4.5 2.3837 4.5C2.40429 4.5 2.42486 4.5 2.44541 4.5C2.46596 4.5 2.48649 4.5 2.50701 4.5C2.52753 4.5 2.54803 4.5 2.56852 4.5C2.589 4.5 2.60947 4.5 2.62992 4.5C2.65038 4.5 2.67081 4.5 2.69123 4.5C2.71165 4.5 2.73205 4.5 2.75244 4.5C2.77283 4.5 2.7932 4.5 2.81355 4.5C2.83391 4.5 2.85424 4.5 2.87456 4.5C2.89489 4.5 2.91519 4.5 2.93548 4.5C2.95577 4.5 2.97604 4.5 2.9963 4.5C3.01656 4.5 3.0368 4.5 3.05702 4.5C3.07725 4.5 3.09746 4.5 3.11765 4.5C3.13785 4.5 3.15802 4.5 3.17819 4.5C3.19835 4.5 3.21849 4.5 3.23862 4.5C3.25875 4.5 3.27887 4.5 3.29897 4.5C3.31906 4.5 3.33915 4.5 3.35921 4.5C3.37928 4.5 3.39933 4.5 3.41937 4.5C3.43941 4.5 3.45943 4.5 3.47943 4.5C3.49944 4.5 3.51943 4.5 3.5394 4.5C3.55938 4.5 3.57934 4.5 3.59928 4.5C3.61922 4.5 3.63915 4.5 3.65906 4.5C3.67898 4.5 3.69888 4.5 3.71876 4.5C3.73864 4.5 3.75851 4.5 3.77836 4.5C3.79821 4.5 3.81805 4.5 3.83787 4.5C3.8577 4.5 3.8775 4.5 3.89729 4.5C3.91709 4.5 3.93686 4.5 3.95663 4.5C3.97639 4.5 3.99614 4.5 4.01587 4.5C4.0356 4.5 4.05532 4.5 4.07502 4.5C4.09473 4.5 4.11441 4.5 4.13409 4.5C4.15376 4.5 4.17342 4.5 4.19307 4.5C4.21271 4.5 4.23234 4.5 4.25196 4.5C4.27157 4.5 4.29117 4.5 4.31076 4.5C4.33034 4.5 4.34992 4.5 4.36947 4.5C4.38903 4.5 4.40857 4.5 4.4281 4.5C4.44763 4.5 4.46715 4.5 4.48665 4.5C4.50615 4.5 4.52563 4.5 4.5451 4.5C4.56458 4.5 4.58403 4.5 4.60348 4.5C4.62292 4.5 4.64235 4.5 4.66177 4.5C4.68118 4.5 4.70058 4.5 4.71997 4.5C4.73936 4.5 4.75873 4.5 4.77809 4.5C4.79745 4.5 4.8168 4.5 4.83613 4.5C4.85546 4.5 4.87478 4.5 4.89408 4.5C4.91339 4.5 4.93268 4.5 4.95195 4.5C4.97123 4.5 4.99049 4.5 5.00974 4.5C5.02899 4.5 5.04823 4.5 5.06745 4.5C5.08667 4.5 5.10588 4.5 5.12508 4.5C5.14427 4.5 5.16346 4.5 5.18262 4.5C5.20179 4.5 5.22095 4.5 5.24009 4.5C5.25923 4.5 5.27836 4.5 5.29748 4.5C5.31659 4.5 5.33569 4.5 5.35478 4.5C5.37387 4.5 5.39295 4.5 5.41201 4.5C5.43107 4.5 5.45012 4.5 5.46916 4.5C5.4882 4.5 5.50722 4.5 5.52623 4.5C5.54524 4.5 5.56424 4.5 5.58322 4.5C5.60221 4.5 5.62118 4.5 5.64014 4.5C5.6591 4.5 5.67804 4.5 5.69698 4.5C5.71591 4.5 5.73483 4.5 5.75374 4.5C5.77265 4.5 5.79154 4.5 5.81042 4.5C5.82931 4.5 5.84818 4.5 5.86704 4.5C5.88589 4.5 5.90474 4.5 5.92357 4.5C5.9424 4.5 5.96122 4.5 5.98003 4.5C5.99884 4.5 6.01764 4.5 6.03642 4.5C6.0552 4.5 6.07397 4.5 6.09273 4.5C6.11149 4.5 6.13024 4.5 6.14897 4.5C6.1677 4.5 6.18643 4.5 6.20514 4.5C6.22385 4.5 6.24254 4.5 6.26123 4.5C6.27992 4.5 6.29859 4.5 6.31725 4.5C6.33591 4.5 6.35456 4.5 6.3732 4.5C6.39184 4.5 6.41046 4.5 6.42908 4.5C6.44769 4.5 6.4663 4.5 6.48489 4.5C6.50348 4.5 6.52206 4.5 6.54062 4.5C6.55919 4.5 6.57775 4.5 6.59629 4.5C6.61483 4.5 6.63337 4.5 6.65189 4.5C6.67041 4.5 6.68892 4.5 6.70742 4.5C6.72591 4.5 6.7444 4.5 6.76288 4.5C6.78135 4.5 6.79981 4.5 6.81827 4.5C6.83672 4.5 6.85516 4.5 6.87359 4.5C6.89202 4.5 6.91044 4.5 6.92885 4.5C6.94725 4.5 6.96565 4.5 6.98404 4.5C7.00242 4.5 7.02079 4.5 7.03916 4.5C7.05752 4.5 7.07587 4.5 7.09421 4.5C7.11255 4.5 7.13089 4.5 7.1492 4.5C7.16752 4.5 7.18583 4.5 7.20413 4.5C7.22243 4.5 7.24071 4.5 7.25899 4.5C7.27727 4.5 7.29553 4.5 7.31379 4.5C7.33204 4.5 7.35028 4.5 7.36852 4.5C7.38675 4.5 7.40497 4.5 7.42319 4.5C7.4414 4.5 7.4596 4.5 7.47779 4.5C7.49598 4.5 7.51416 4.5 7.53233 4.5C7.5505 4.5 7.56866 4.5 7.58681 4.5C7.60496 4.5 7.6231 4.5 7.64123 4.5C7.65936 4.5 7.67748 4.5 7.69559 4.5C7.7137 4.5 7.7318 4.5 7.74989 4.5C7.76797 4.5 7.78605 4.5 7.80412 4.5C7.82219 4.5 7.84025 4.5 7.8583 4.5C7.87634 4.5 7.89438 4.5 7.91241 4.5C7.93044 4.5 7.94846 4.5 7.96647 4.5C7.98448 4.5 8.00248 4.5 8.02047 4.5C8.03846 4.5 8.05643 4.5 8.0744 4.5C8.09237 4.5 8.11034 4.5 8.12829 4.5C8.14624 4.5 8.16418 4.5 8.18211 4.5C8.20004 4.5 8.21796 4.5 8.23588 4.5C8.25379 4.5 8.27169 4.5 8.28959 4.5C8.30748 4.5 8.32536 4.5 8.34324 4.5C8.36111 4.5 8.37898 4.5 8.39684 4.5C8.41469 4.5 8.43254 4.5 8.45038 4.5C8.46822 4.5 8.48605 4.5 8.50387 4.5C8.52169 4.5 8.5395 4.5 8.5573 4.5C8.5751 4.5 8.59289 4.5 8.61068 4.5C8.62846 4.5 8.64624 4.5 8.664 4.5C8.68177 4.5 8.69953 4.5 8.71727 4.5C8.73502 4.5 8.75276 4.5 8.77049 4.5C8.78822 4.5 8.80595 4.5 8.82366 4.5C8.84137 4.5 8.85908 4.5 8.87677 4.5C8.89447 4.5 8.91216 4.5 8.92984 4.5C8.94752 4.5 8.96519 4.5 8.98285 4.5C9.00051 4.5 9.01816 4.5 9.03581 4.5C9.05345 4.5 9.07109 4.5 9.08872 4.5C9.10635 4.5 9.12397 4.5 9.14158 4.5C9.15919 4.5 9.1768 4.5 9.19439 4.5C9.21199 4.5 9.22958 4.5 9.24716 4.5C9.26473 4.5 9.28231 4.5 9.29987 4.5C9.31743 4.5 9.33499 4.5 9.35254 4.5C9.37008 4.5 9.38762 4.5 9.40515 4.5C9.42268 4.5 9.44021 4.5 9.45772 4.5C9.47524 4.5 9.49275 4.5 9.51025 4.5C9.52775 4.5 9.54524 4.5 9.56273 4.5C9.58021 4.5 9.59769 4.5 9.61516 4.5C9.63263 4.5 9.65009 4.5 9.66754 4.5C9.685 4.5 9.70245 4.5 9.71989 4.5C9.73733 4.5 9.75476 4.5 9.77218 4.5C9.78961 4.5 9.80702 4.5 9.82444 4.5C9.84185 4.5 9.85925 4.5 9.87664 4.5C9.89404 4.5 9.91143 4.5 9.92881 4.5C9.94619 4.5 9.96356 4.5 9.98093 4.5C9.9983 4.5 10.0157 4.5 10.033 4.5C10.0504 4.5 10.0677 4.5 10.085 4.5C10.1024 4.5 10.1197 4.5 10.137 4.5C10.1544 4.5 10.1717 4.5 10.189 4.5C10.2063 4.5 10.2236 4.5 10.2409 4.5C10.2582 4.5 10.2755 4.5 10.2928 4.5C10.3101 4.5 10.3273 4.5 10.3446 4.5C10.3619 4.5 10.3792 4.5 10.3964 4.5C10.4137 4.5 10.4309 4.5 10.4482 4.5C10.4654 4.5 10.4827 4.5 10.4999 4.5C10.5171 4.5 10.5343 4.5 10.5516 4.5C10.5688 4.5 10.586 4.5 10.6032 4.5C10.6204 4.5 10.6376 4.5 10.6548 4.5C10.672 4.5 10.6892 4.5 10.7064 4.5C10.7236 4.5 10.7407 4.5 10.7579 4.5C10.7751 4.5 10.7922 4.5 10.8094 4.5C10.8266 4.5 10.8437 4.5 10.8609 4.5C10.878 4.5 10.8951 4.5 10.9123 4.5C10.9294 4.5 10.9465 4.5 10.9637 4.5C10.9808 4.5 10.9979 4.5 11.015 4.5C11.0321 4.5 11.0492 4.5 11.0663 4.5C11.0834 4.5 11.1005 4.5 11.1176 4.5C11.1347 4.5 11.1518 4.5 11.1689 4.5C11.186 4.5 11.203 4.5 11.2201 4.5C11.2372 4.5 11.2542 4.5 11.2713 4.5C11.2883 4.5 11.3054 4.5 11.3224 4.5C11.3395 4.5 11.3565 4.5 11.3736 4.5C11.3906 4.5 11.4076 4.5 11.4247 4.5C11.4417 4.5 11.4587 4.5 11.4757 4.5C11.4927 4.5 11.5097 4.5 11.5268 4.5C11.5438 4.5 11.5608 4.5 11.5778 4.5C11.5948 4.5 11.6117 4.5 11.6287 4.5C11.6457 4.5 11.6627 4.5 11.6797 4.5C11.6967 4.5 11.7136 4.5 11.7306 4.5C11.7476 4.5 11.7645 4.5 11.7815 4.5C11.7984 4.5 11.8154 4.5 11.8323 4.5C11.8493 4.5 11.8662 4.5 11.8832 4.5C11.9001 4.5 11.9171 4.5 11.934 4.5C11.9509 4.5 11.9679 4.5 11.9848 4.5C12.0017 4.5 12.0186 4.5 12.0355 4.5C12.0524 4.5 12.0694 4.5 12.0863 4.5C12.1032 4.5 12.1201 4.5 12.137 4.5C12.1539 4.5 12.1708 4.5 12.1876 4.5C12.2045 4.5 12.2214 4.5 12.2383 4.5C12.2552 4.5 12.2721 4.5 12.2889 4.5C12.3058 4.5 12.3227 4.5 12.3396 4.5C12.3564 4.5 12.3733 4.5 12.3901 4.5C12.407 4.5 12.4239 4.5 12.4407 4.5C12.4576 4.5 12.4744 4.5 12.4912 4.5C12.5081 4.5 12.5249 4.5 12.5418 4.5C12.5586 4.5 12.5754 4.5 12.5923 4.5C12.6091 4.5 12.6259 4.5 12.6428 4.5C12.6596 4.5 12.6764 4.5 12.6932 4.5C12.71 4.5 12.7268 4.5 12.7437 4.5C12.7605 4.5 12.7773 4.5 12.7941 4.5C12.8109 4.5 12.8277 4.5 12.8445 4.5C12.8613 4.5 12.8781 4.5 12.8949 4.5C12.9117 4.5 12.9284 4.5 12.9452 4.5C12.962 4.5 12.9788 4.5 12.9956 4.5C13.0124 4.5 13.0291 4.5 13.0459 4.5C13.0627 4.5 13.0795 4.5 13.0962 4.5C13.113 4.5 13.1298 4.5 13.1465 4.5C13.1633 4.5 13.18 4.5 13.1968 4.5C13.2136 4.5 13.2303 4.5 13.2471 4.5C13.2638 4.5 13.2806 4.5 13.2973 4.5C13.3141 4.5 13.3308 4.5 13.3476 4.5C13.3643 4.5 13.381 4.5 13.3978 4.5C13.4145 4.5 13.4313 4.5 13.448 4.5C13.4647 4.5 13.4815 4.5 13.4982 4.5C13.5149 4.5 13.5316 4.5 13.5484 4.5C13.5651 4.5 13.5818 4.5 13.5985 4.5C13.6153 4.5 13.632 4.5 13.6487 4.5C13.6654 4.5 13.6821 4.5 13.6988 4.5C13.7156 4.5 13.7323 4.5 13.749 4.5C13.7657 4.5 13.7824 4.5 13.7991 4.5C13.8158 4.5 13.8325 4.5 13.8492 4.5C13.8659 4.5 13.8826 4.5 13.8993 4.5C13.916 4.5 13.9327 4.5 13.9494 4.5C13.9661 4.5 13.9828 4.5 13.9995 4.5C14.0162 4.5 14.0329 4.5 14.0496 4.5C14.0663 4.5 14.083 4.5 14.0997 4.5C14.1163 4.5 14.133 4.5 14.1497 4.5C14.1664 4.5 14.1831 4.5 14.1998 4.5C14.2165 4.5 14.2331 4.5 14.2498 4.5C14.2665 4.5 14.2832 4.5 14.2999 4.5C14.3165 4.5 14.3332 4.5 14.3499 4.5C14.3666 4.5 14.3832 4.5 14.3999 4.5C14.4166 4.5 14.4333 4.5 14.4499 4.5C14.4666 4.5 14.4833 4.5 14.5 4.5C14.5166 4.5 14.5333 4.5 14.55 4.5C14.5667 4.5 14.5833 4.5 14.6 4.5C14.6167 4.5 14.6333 4.5 14.65 4.5C14.6667 4.5 14.6833 4.5 14.7 4.5C14.7167 4.5 14.7333 4.5 14.75 4.5C14.7667 4.5 14.7833 4.5 14.8 4.5C14.8167 4.5 14.8333 4.5 14.85 4.5C14.8667 4.5 14.8833 4.5 14.9 4.5C14.9167 4.5 14.9333 4.5 14.95 4.5C14.9667 4.5 14.9833 4.5 15 4.5C15.0167 4.5 15.0333 4.5 15.05 4.5C15.0667 4.5 15.0833 4.5 15.1 4.5C15.1167 4.5 15.1333 4.5 15.15 4.5C15.1667 4.5 15.1833 4.5 15.2 4.5C15.2167 4.5 15.2333 4.5 15.25 4.5C15.2667 4.5 15.2833 4.5 15.3 4.5C15.3167 4.5 15.3333 4.5 15.35 4.5C15.3667 4.5 15.3833 4.5 15.4 4.5C15.4167 4.5 15.4333 4.5 15.45 4.5C15.4667 4.5 15.4834 4.5 15.5 4.5C15.5167 4.5 15.5334 4.5 15.5501 4.5C15.5667 4.5 15.5834 4.5 15.6001 4.5C15.6168 4.5 15.6334 4.5 15.6501 4.5C15.6668 4.5 15.6835 4.5 15.7001 4.5C15.7168 4.5 15.7335 4.5 15.7502 4.5C15.7669 4.5 15.7835 4.5 15.8002 4.5C15.8169 4.5 15.8336 4.5 15.8503 4.5C15.867 4.5 15.8837 4.5 15.9003 4.5C15.917 4.5 15.9337 4.5 15.9504 4.5C15.9671 4.5 15.9838 4.5 16.0005 4.5C16.0172 4.5 16.0339 4.5 16.0506 4.5C16.0673 4.5 16.084 4.5 16.1007 4.5C16.1174 4.5 16.1341 4.5 16.1508 4.5C16.1675 4.5 16.1842 4.5 16.2009 4.5C16.2176 4.5 16.2343 4.5 16.251 4.5C16.2677 4.5 16.2844 4.5 16.3012 4.5C16.3179 4.5 16.3346 4.5 16.3513 4.5C16.368 4.5 16.3847 4.5 16.4015 4.5C16.4182 4.5 16.4349 4.5 16.4516 4.5C16.4684 4.5 16.4851 4.5 16.5018 4.5C16.5185 4.5 16.5353 4.5 16.552 4.5C16.5687 4.5 16.5855 4.5 16.6022 4.5C16.619 4.5 16.6357 4.5 16.6524 4.5C16.6692 4.5 16.6859 4.5 16.7027 4.5C16.7194 4.5 16.7362 4.5 16.7529 4.5C16.7697 4.5 16.7864 4.5 16.8032 4.5C16.82 4.5 16.8367 4.5 16.8535 4.5C16.8702 4.5 16.887 4.5 16.9038 4.5C16.9205 4.5 16.9373 4.5 16.9541 4.5C16.9709 4.5 16.9876 4.5 17.0044 4.5C17.0212 4.5 17.038 4.5 17.0548 4.5C17.0716 4.5 17.0883 4.5 17.1051 4.5C17.1219 4.5 17.1387 4.5 17.1555 4.5C17.1723 4.5 17.1891 4.5 17.2059 4.5C17.2227 4.5 17.2395 4.5 17.2563 4.5C17.2732 4.5 17.29 4.5 17.3068 4.5C17.3236 4.5 17.3404 4.5 17.3572 4.5C17.3741 4.5 17.3909 4.5 17.4077 4.5C17.4246 4.5 17.4414 4.5 17.4582 4.5C17.4751 4.5 17.4919 4.5 17.5088 4.5C17.5256 4.5 17.5424 4.5 17.5593 4.5C17.5761 4.5 17.593 4.5 17.6099 4.5C17.6267 4.5 17.6436 4.5 17.6604 4.5C17.6773 4.5 17.6942 4.5 17.7111 4.5C17.7279 4.5 17.7448 4.5 17.7617 4.5C17.7786 4.5 17.7955 4.5 17.8124 4.5C17.8292 4.5 17.8461 4.5 17.863 4.5C17.8799 4.5 17.8968 4.5 17.9137 4.5C17.9306 4.5 17.9476 4.5 17.9645 4.5C17.9814 4.5 17.9983 4.5 18.0152 4.5C18.0321 4.5 18.0491 4.5 18.066 4.5C18.0829 4.5 18.0999 4.5 18.1168 4.5C18.1338 4.5 18.1507 4.5 18.1677 4.5C18.1846 4.5 18.2016 4.5 18.2185 4.5C18.2355 4.5 18.2524 4.5 18.2694 4.5C18.2864 4.5 18.3033 4.5 18.3203 4.5C18.3373 4.5 18.3543 4.5 18.3713 4.5C18.3883 4.5 18.4052 4.5 18.4222 4.5C18.4392 4.5 18.4562 4.5 18.4732 4.5C18.4903 4.5 18.5073 4.5 18.5243 4.5C18.5413 4.5 18.5583 4.5 18.5753 4.5C18.5924 4.5 18.6094 4.5 18.6264 4.5C18.6435 4.5 18.6605 4.5 18.6776 4.5C18.6946 4.5 18.7117 4.5 18.7287 4.5C18.7458 4.5 18.7628 4.5 18.7799 4.5C18.797 4.5 18.814 4.5 18.8311 4.5C18.8482 4.5 18.8653 4.5 18.8824 4.5C18.8995 4.5 18.9166 4.5 18.9337 4.5C18.9508 4.5 18.9679 4.5 18.985 4.5C19.0021 4.5 19.0192 4.5 19.0363 4.5C19.0535 4.5 19.0706 4.5 19.0877 4.5C19.1049 4.5 19.122 4.5 19.1391 4.5C19.1563 4.5 19.1734 4.5 19.1906 4.5C19.2078 4.5 19.2249 4.5 19.2421 4.5C19.2593 4.5 19.2764 4.5 19.2936 4.5C19.3108 4.5 19.328 4.5 19.3452 4.5C19.3624 4.5 19.3796 4.5 19.3968 4.5C19.414 4.5 19.4312 4.5 19.4484 4.5C19.4657 4.5 19.4829 4.5 19.5001 4.5C19.5173 4.5 19.5346 4.5 19.5518 4.5C19.5691 4.5 19.5863 4.5 19.6036 4.5C19.6208 4.5 19.6381 4.5 19.6554 4.5C19.6727 4.5 19.6899 4.5 19.7072 4.5C19.7245 4.5 19.7418 4.5 19.7591 4.5C19.7764 4.5 19.7937 4.5 19.811 4.5C19.8283 4.5 19.8456 4.5 19.863 4.5C19.8803 4.5 19.8976 4.5 19.915 4.5C19.9323 4.5 19.9496 4.5 19.967 4.5C19.9843 4.5 20.0017 4.5 20.0191 4.5C20.0364 4.5 20.0538 4.5 20.0712 4.5C20.0886 4.5 20.106 4.5 20.1234 4.5C20.1408 4.5 20.1582 4.5 20.1756 4.5C20.193 4.5 20.2104 4.5 20.2278 4.5C20.2452 4.5 20.2627 4.5 20.2801 4.5C20.2976 4.5 20.315 4.5 20.3325 4.5C20.3499 4.5 20.3674 4.5 20.3848 4.5C20.4023 4.5 20.4198 4.5 20.4373 4.5C20.4548 4.5 20.4723 4.5 20.4898 4.5C20.5073 4.5 20.5248 4.5 20.5423 4.5C20.5598 4.5 20.5773 4.5 20.5948 4.5C20.6124 4.5 20.6299 4.5 20.6475 4.5C20.665 4.5 20.6826 4.5 20.7001 4.5C20.7177 4.5 20.7353 4.5 20.7528 4.5C20.7704 4.5 20.788 4.5 20.8056 4.5C20.8232 4.5 20.8408 4.5 20.8584 4.5C20.876 4.5 20.8937 4.5 20.9113 4.5C20.9289 4.5 20.9465 4.5 20.9642 4.5C20.9818 4.5 20.9995 4.5 21.0172 4.5C21.0348 4.5 21.0525 4.5 21.0702 4.5C21.0878 4.5 21.1055 4.5 21.1232 4.5C21.1409 4.5 21.1586 4.5 21.1763 4.5C21.1941 4.5 21.2118 4.5 21.2295 4.5C21.2472 4.5 21.265 4.5 21.2827 4.5C21.3005 4.5 21.3182 4.5 21.336 4.5C21.3538 4.5 21.3715 4.5 21.3893 4.5C21.4071 4.5 21.4249 4.5 21.4427 4.5C21.4605 4.5 21.4783 4.5 21.4961 4.5C21.514 4.5 21.5318 4.5 21.5496 4.5C21.5675 4.5 21.5853 4.5 21.6032 4.5C21.621 4.5 21.6389 4.5 21.6568 4.5C21.6746 4.5 21.6925 4.5 21.7104 4.5C21.7283 4.5 21.7462 4.5 21.7641 4.5C21.782 4.5 21.8 4.5 21.8179 4.5C21.8358 4.5 21.8538 4.5 21.8717 4.5C21.8897 4.5 21.9076 4.5 21.9256 4.5C21.9436 4.5 21.9615 4.5 21.9795 4.5C21.9975 4.5 22.0155 4.5 22.0335 4.5C22.0515 4.5 22.0696 4.5 22.0876 4.5C22.1056 4.5 22.1237 4.5 22.1417 4.5C22.1598 4.5 22.1778 4.5 22.1959 4.5C22.2139 4.5 22.232 4.5 22.2501 4.5C22.2682 4.5 22.2863 4.5 22.3044 4.5C22.3225 4.5 22.3406 4.5 22.3588 4.5C22.3769 4.5 22.395 4.5 22.4132 4.5C22.4313 4.5 22.4495 4.5 22.4677 4.5C22.4858 4.5 22.504 4.5 22.5222 4.5C22.5404 4.5 22.5586 4.5 22.5768 4.5C22.595 4.5 22.6132 4.5 22.6315 4.5C22.6497 4.5 22.668 4.5 22.6862 4.5C22.7045 4.5 22.7227 4.5 22.741 4.5C22.7593 4.5 22.7776 4.5 22.7959 4.5C22.8142 4.5 22.8325 4.5 22.8508 4.5C22.8691 4.5 22.8874 4.5 22.9058 4.5C22.9241 4.5 22.9425 4.5 22.9608 4.5C22.9792 4.5 22.9976 4.5 23.016 4.5C23.0344 4.5 23.0527 4.5 23.0712 4.5C23.0896 4.5 23.108 4.5 23.1264 4.5C23.1448 4.5 23.1633 4.5 23.1817 4.5C23.2002 4.5 23.2186 4.5 23.2371 4.5C23.2556 4.5 23.2741 4.5 23.2926 4.5C23.3111 4.5 23.3296 4.5 23.3481 4.5C23.3666 4.5 23.3852 4.5 23.4037 4.5C23.4223 4.5 23.4408 4.5 23.4594 4.5C23.4779 4.5 23.4965 4.5 23.5151 4.5C23.5337 4.5 23.5523 4.5 23.5709 4.5C23.5895 4.5 23.6082 4.5 23.6268 4.5C23.6454 4.5 23.6641 4.5 23.6827 4.5C23.7014 4.5 23.7201 4.5 23.7388 4.5C23.7575 4.5 23.7762 4.5 23.7949 4.5C23.8136 4.5 23.8323 4.5 23.851 4.5C23.8698 4.5 23.8885 4.5 23.9073 4.5C23.926 4.5 23.9448 4.5 23.9636 4.5C23.9824 4.5 24.0012 4.5 24.02 4.5C24.0388 4.5 24.0576 4.5 24.0764 4.5C24.0953 4.5 24.1141 4.5 24.133 4.5C24.1518 4.5 24.1707 4.5 24.1896 4.5C24.2085 4.5 24.2274 4.5 24.2463 4.5C24.2652 4.5 24.2841 4.5 24.303 4.5C24.322 4.5 24.3409 4.5 24.3599 4.5C24.3788 4.5 24.3978 4.5 24.4168 4.5C24.4358 4.5 24.4548 4.5 24.4738 4.5C24.4928 4.5 24.5118 4.5 24.5308 4.5C24.5499 4.5 24.5689 4.5 24.588 4.5C24.6071 4.5 24.6261 4.5 24.6452 4.5C24.6643 4.5 24.6834 4.5 24.7025 4.5C24.7216 4.5 24.7408 4.5 24.7599 4.5C24.7791 4.5 24.7982 4.5 24.8174 4.5C24.8365 4.5 24.8557 4.5 24.8749 4.5C24.8941 4.5 24.9133 4.5 24.9325 4.5C24.9518 4.5 24.971 4.5 24.9903 4.5C25.0095 4.5 25.0288 4.5 25.048 4.5C25.0673 4.5 25.0866 4.5 25.1059 4.5C25.1252 4.5 25.1445 4.5 25.1639 4.5C25.1832 4.5 25.2026 4.5 25.2219 4.5C25.2413 4.5 25.2606 4.5 25.28 4.5C25.2994 4.5 25.3188 4.5 25.3382 4.5C25.3576 4.5 25.3771 4.5 25.3965 4.5C25.416 4.5 25.4354 4.5 25.4549 4.5C25.4744 4.5 25.4939 4.5 25.5134 4.5C25.5329 4.5 25.5524 4.5 25.5719 4.5C25.5914 4.5 25.611 4.5 25.6305 4.5C25.6501 4.5 25.6697 4.5 25.6892 4.5C25.7088 4.5 25.7284 4.5 25.748 4.5C25.7677 4.5 25.7873 4.5 25.8069 4.5C25.8266 4.5 25.8462 4.5 25.8659 4.5C25.8856 4.5 25.9053 4.5 25.925 4.5C25.9447 4.5 25.9644 4.5 25.9841 4.5C26.0039 4.5 26.0236 4.5 26.0434 4.5C26.0631 4.5 26.0829 4.5 26.1027 4.5C26.1225 4.5 26.1423 4.5 26.1621 4.5C26.1819 4.5 26.2018 4.5 26.2216 4.5C26.2415 4.5 26.2614 4.5 26.2812 4.5C26.3011 4.5 26.321 4.5 26.3409 4.5C26.3608 4.5 26.3808 4.5 26.4007 4.5C26.4207 4.5 26.4406 4.5 26.4606 4.5C26.4806 4.5 26.5006 4.5 26.5206 4.5C26.5406 4.5 26.5606 4.5 26.5806 4.5C26.6007 4.5 26.6207 4.5 26.6408 4.5C26.6609 4.5 26.6809 4.5 26.701 4.5C26.7211 4.5 26.7412 4.5 26.7614 4.5C26.7815 4.5 26.8017 4.5 26.8218 4.5C26.842 4.5 26.8622 4.5 26.8823 4.5C26.9025 4.5 26.9228 4.5 26.943 4.5C26.9632 4.5 26.9834 4.5 27.0037 4.5C27.024 4.5 27.0442 4.5 27.0645 4.5C27.0848 4.5 27.1051 4.5 27.1254 4.5C27.1458 4.5 27.1661 4.5 27.1864 4.5C27.2068 4.5 27.2272 4.5 27.2476 4.5C27.2679 4.5 27.2883 4.5 27.3088 4.5C27.3292 4.5 27.3496 4.5 27.3701 4.5C27.3905 4.5 27.411 4.5 27.4315 4.5C27.452 4.5 27.4725 4.5 27.493 4.5C27.5135 4.5 27.534 4.5 27.5546 4.5C27.5751 4.5 27.5957 4.5 27.6163 4.5C27.6369 4.5 27.6575 4.5 27.6781 4.5C27.6987 4.5 27.7194 4.5 27.74 4.5C27.7607 4.5 27.7813 4.5 27.802 4.5C27.8227 4.5 27.8434 4.5 27.8641 4.5C27.8848 4.5 27.9056 4.5 27.9263 4.5C27.9471 4.5 27.9679 4.5 27.9887 4.5C28.0094 4.5 28.0302 4.5 28.0511 4.5C28.0719 4.5 28.0927 4.5 28.1136 4.5C28.1345 4.5 28.1553 4.5 28.1762 4.5C28.1971 4.5 28.218 4.5 28.2389 4.5C28.2599 4.5 28.2808 4.5 28.3018 4.5C28.3227 4.5 28.3437 4.5 28.3647 4.5C28.3857 4.5 28.4067 4.5 28.4278 4.5C28.4488 4.5 28.4699 4.5 28.4909 4.5C28.512 4.5 28.5331 4.5 28.5542 4.5C28.5753 4.5 28.5964 4.5 28.6175 4.5C28.6387 4.5 28.6598 4.5 28.681 4.5C28.7022 4.5 28.7234 4.5 28.7446 4.5C28.7658 4.5 28.787 4.5 28.8083 4.5C28.8295 4.5 28.8508 4.5 28.8721 4.5C28.8934 4.5 28.9147 4.5 28.936 4.5C28.9573 4.5 28.9786 4.5 29 4.5L29 3.5C28.9786 3.5 28.9573 3.5 28.936 3.5C28.9147 3.5 28.8934 3.5 28.8721 3.5C28.8508 3.5 28.8295 3.5 28.8083 3.5C28.787 3.5 28.7658 3.5 28.7446 3.5C28.7234 3.5 28.7022 3.5 28.681 3.5C28.6598 3.5 28.6387 3.5 28.6175 3.5C28.5964 3.5 28.5753 3.5 28.5542 3.5C28.5331 3.5 28.512 3.5 28.4909 3.5C28.4699 3.5 28.4488 3.5 28.4278 3.5C28.4067 3.5 28.3857 3.5 28.3647 3.5C28.3437 3.5 28.3227 3.5 28.3018 3.5C28.2808 3.5 28.2599 3.5 28.2389 3.5C28.218 3.5 28.1971 3.5 28.1762 3.5C28.1553 3.5 28.1345 3.5 28.1136 3.5C28.0927 3.5 28.0719 3.5 28.0511 3.5C28.0302 3.5 28.0094 3.5 27.9887 3.5C27.9679 3.5 27.9471 3.5 27.9263 3.5C27.9056 3.5 27.8848 3.5 27.8641 3.5C27.8434 3.5 27.8227 3.5 27.802 3.5C27.7813 3.5 27.7607 3.5 27.74 3.5C27.7194 3.5 27.6987 3.5 27.6781 3.5C27.6575 3.5 27.6369 3.5 27.6163 3.5C27.5957 3.5 27.5751 3.5 27.5546 3.5C27.534 3.5 27.5135 3.5 27.493 3.5C27.4725 3.5 27.452 3.5 27.4315 3.5C27.411 3.5 27.3905 3.5 27.3701 3.5C27.3496 3.5 27.3292 3.5 27.3088 3.5C27.2883 3.5 27.2679 3.5 27.2476 3.5C27.2272 3.5 27.2068 3.5 27.1864 3.5C27.1661 3.5 27.1458 3.5 27.1254 3.5C27.1051 3.5 27.0848 3.5 27.0645 3.5C27.0442 3.5 27.024 3.5 27.0037 3.5C26.9834 3.5 26.9632 3.5 26.943 3.5C26.9227 3.5 26.9025 3.5 26.8823 3.5C26.8622 3.5 26.842 3.5 26.8218 3.5C26.8017 3.5 26.7815 3.5 26.7614 3.5C26.7412 3.5 26.7211 3.5 26.701 3.5C26.6809 3.5 26.6609 3.5 26.6408 3.5C26.6207 3.5 26.6007 3.5 26.5806 3.5C26.5606 3.5 26.5406 3.5 26.5206 3.5C26.5006 3.5 26.4806 3.5 26.4606 3.5C26.4406 3.5 26.4207 3.5 26.4007 3.5C26.3808 3.5 26.3608 3.5 26.3409 3.5C26.321 3.5 26.3011 3.5 26.2812 3.5C26.2614 3.5 26.2415 3.5 26.2216 3.5C26.2018 3.5 26.1819 3.5 26.1621 3.5C26.1423 3.5 26.1225 3.5 26.1027 3.5C26.0829 3.5 26.0631 3.5 26.0434 3.5C26.0236 3.5 26.0039 3.5 25.9841 3.5C25.9644 3.5 25.9447 3.5 25.925 3.5C25.9053 3.5 25.8856 3.5 25.8659 3.5C25.8462 3.5 25.8266 3.5 25.8069 3.5C25.7873 3.5 25.7677 3.5 25.748 3.5C25.7284 3.5 25.7088 3.5 25.6892 3.5C25.6697 3.5 25.6501 3.5 25.6305 3.5C25.611 3.5 25.5914 3.5 25.5719 3.5C25.5524 3.5 25.5329 3.5 25.5134 3.5C25.4939 3.5 25.4744 3.5 25.4549 3.5C25.4354 3.5 25.416 3.5 25.3965 3.5C25.3771 3.5 25.3576 3.5 25.3382 3.5C25.3188 3.5 25.2994 3.5 25.28 3.5C25.2606 3.5 25.2413 3.5 25.2219 3.5C25.2026 3.5 25.1832 3.5 25.1639 3.5C25.1445 3.5 25.1252 3.5 25.1059 3.5C25.0866 3.5 25.0673 3.5 25.048 3.5C25.0288 3.5 25.0095 3.5 24.9903 3.5C24.971 3.5 24.9518 3.5 24.9325 3.5C24.9133 3.5 24.8941 3.5 24.8749 3.5C24.8557 3.5 24.8365 3.5 24.8174 3.5C24.7982 3.5 24.7791 3.5 24.7599 3.5C24.7408 3.5 24.7216 3.5 24.7025 3.5C24.6834 3.5 24.6643 3.5 24.6452 3.5C24.6261 3.5 24.6071 3.5 24.588 3.5C24.5689 3.5 24.5499 3.5 24.5308 3.5C24.5118 3.5 24.4928 3.5 24.4738 3.5C24.4548 3.5 24.4358 3.5 24.4168 3.5C24.3978 3.5 24.3788 3.5 24.3599 3.5C24.3409 3.5 24.322 3.5 24.303 3.5C24.2841 3.5 24.2652 3.5 24.2463 3.5C24.2274 3.5 24.2085 3.5 24.1896 3.5C24.1707 3.5 24.1518 3.5 24.133 3.5C24.1141 3.5 24.0953 3.5 24.0764 3.5C24.0576 3.5 24.0388 3.5 24.02 3.5C24.0012 3.5 23.9824 3.5 23.9636 3.5C23.9448 3.5 23.926 3.5 23.9073 3.5C23.8885 3.5 23.8698 3.5 23.851 3.5C23.8323 3.5 23.8136 3.5 23.7949 3.5C23.7762 3.5 23.7575 3.5 23.7388 3.5C23.7201 3.5 23.7014 3.5 23.6827 3.5C23.6641 3.5 23.6454 3.5 23.6268 3.5C23.6082 3.5 23.5895 3.5 23.5709 3.5C23.5523 3.5 23.5337 3.5 23.5151 3.5C23.4965 3.5 23.4779 3.5 23.4594 3.5C23.4408 3.5 23.4223 3.5 23.4037 3.5C23.3852 3.5 23.3666 3.5 23.3481 3.5C23.3296 3.5 23.3111 3.5 23.2926 3.5C23.2741 3.5 23.2556 3.5 23.2371 3.5C23.2186 3.5 23.2002 3.5 23.1817 3.5C23.1633 3.5 23.1448 3.5 23.1264 3.5C23.108 3.5 23.0896 3.5 23.0712 3.5C23.0527 3.5 23.0343 3.5 23.016 3.5C22.9976 3.5 22.9792 3.5 22.9608 3.5C22.9425 3.5 22.9241 3.5 22.9058 3.5C22.8874 3.5 22.8691 3.5 22.8508 3.5C22.8325 3.5 22.8142 3.5 22.7959 3.5C22.7776 3.5 22.7593 3.5 22.741 3.5C22.7227 3.5 22.7045 3.5 22.6862 3.5C22.668 3.5 22.6497 3.5 22.6315 3.5C22.6132 3.5 22.595 3.5 22.5768 3.5C22.5586 3.5 22.5404 3.5 22.5222 3.5C22.504 3.5 22.4858 3.5 22.4677 3.5C22.4495 3.5 22.4313 3.5 22.4132 3.5C22.395 3.5 22.3769 3.5 22.3588 3.5C22.3406 3.5 22.3225 3.5 22.3044 3.5C22.2863 3.5 22.2682 3.5 22.2501 3.5C22.232 3.5 22.2139 3.5 22.1959 3.5C22.1778 3.5 22.1598 3.5 22.1417 3.5C22.1237 3.5 22.1056 3.5 22.0876 3.5C22.0696 3.5 22.0515 3.5 22.0335 3.5C22.0155 3.5 21.9975 3.5 21.9795 3.5C21.9615 3.5 21.9436 3.5 21.9256 3.5C21.9076 3.5 21.8897 3.5 21.8717 3.5C21.8538 3.5 21.8358 3.5 21.8179 3.5C21.8 3.5 21.782 3.5 21.7641 3.5C21.7462 3.5 21.7283 3.5 21.7104 3.5C21.6925 3.5 21.6746 3.5 21.6568 3.5C21.6389 3.5 21.621 3.5 21.6032 3.5C21.5853 3.5 21.5675 3.5 21.5496 3.5C21.5318 3.5 21.514 3.5 21.4961 3.5C21.4783 3.5 21.4605 3.5 21.4427 3.5C21.4249 3.5 21.4071 3.5 21.3893 3.5C21.3715 3.5 21.3538 3.5 21.336 3.5C21.3182 3.5 21.3005 3.5 21.2827 3.5C21.265 3.5 21.2472 3.5 21.2295 3.5C21.2118 3.5 21.1941 3.5 21.1763 3.5C21.1586 3.5 21.1409 3.5 21.1232 3.5C21.1055 3.5 21.0878 3.5 21.0702 3.5C21.0525 3.5 21.0348 3.5 21.0172 3.5C20.9995 3.5 20.9818 3.5 20.9642 3.5C20.9465 3.5 20.9289 3.5 20.9113 3.5C20.8937 3.5 20.876 3.5 20.8584 3.5C20.8408 3.5 20.8232 3.5 20.8056 3.5C20.788 3.5 20.7704 3.5 20.7528 3.5C20.7353 3.5 20.7177 3.5 20.7001 3.5C20.6826 3.5 20.665 3.5 20.6475 3.5C20.6299 3.5 20.6124 3.5 20.5948 3.5C20.5773 3.5 20.5598 3.5 20.5423 3.5C20.5248 3.5 20.5073 3.5 20.4898 3.5C20.4723 3.5 20.4548 3.5 20.4373 3.5C20.4198 3.5 20.4023 3.5 20.3848 3.5C20.3674 3.5 20.3499 3.5 20.3325 3.5C20.315 3.5 20.2976 3.5 20.2801 3.5C20.2627 3.5 20.2452 3.5 20.2278 3.5C20.2104 3.5 20.193 3.5 20.1756 3.5C20.1582 3.5 20.1408 3.5 20.1234 3.5C20.106 3.5 20.0886 3.5 20.0712 3.5C20.0538 3.5 20.0364 3.5 20.0191 3.5C20.0017 3.5 19.9843 3.5 19.967 3.5C19.9496 3.5 19.9323 3.5 19.915 3.5C19.8976 3.5 19.8803 3.5 19.863 3.5C19.8456 3.5 19.8283 3.5 19.811 3.5C19.7937 3.5 19.7764 3.5 19.7591 3.5C19.7418 3.5 19.7245 3.5 19.7072 3.5C19.6899 3.5 19.6727 3.5 19.6554 3.5C19.6381 3.5 19.6208 3.5 19.6036 3.5C19.5863 3.5 19.5691 3.5 19.5518 3.5C19.5346 3.5 19.5173 3.5 19.5001 3.5C19.4829 3.5 19.4657 3.5 19.4484 3.5C19.4312 3.5 19.414 3.5 19.3968 3.5C19.3796 3.5 19.3624 3.5 19.3452 3.5C19.328 3.5 19.3108 3.5 19.2936 3.5C19.2764 3.5 19.2593 3.5 19.2421 3.5C19.2249 3.5 19.2078 3.5 19.1906 3.5C19.1734 3.5 19.1563 3.5 19.1391 3.5C19.122 3.5 19.1049 3.5 19.0877 3.5C19.0706 3.5 19.0535 3.5 19.0363 3.5C19.0192 3.5 19.0021 3.5 18.985 3.5C18.9679 3.5 18.9508 3.5 18.9337 3.5C18.9166 3.5 18.8995 3.5 18.8824 3.5C18.8653 3.5 18.8482 3.5 18.8311 3.5C18.814 3.5 18.797 3.5 18.7799 3.5C18.7628 3.5 18.7458 3.5 18.7287 3.5C18.7117 3.5 18.6946 3.5 18.6776 3.5C18.6605 3.5 18.6435 3.5 18.6264 3.5C18.6094 3.5 18.5924 3.5 18.5753 3.5C18.5583 3.5 18.5413 3.5 18.5243 3.5C18.5073 3.5 18.4903 3.5 18.4732 3.5C18.4562 3.5 18.4392 3.5 18.4222 3.5C18.4052 3.5 18.3883 3.5 18.3713 3.5C18.3543 3.5 18.3373 3.5 18.3203 3.5C18.3033 3.5 18.2864 3.5 18.2694 3.5C18.2524 3.5 18.2355 3.5 18.2185 3.5C18.2016 3.5 18.1846 3.5 18.1677 3.5C18.1507 3.5 18.1338 3.5 18.1168 3.5C18.0999 3.5 18.0829 3.5 18.066 3.5C18.0491 3.5 18.0321 3.5 18.0152 3.5C17.9983 3.5 17.9814 3.5 17.9645 3.5C17.9476 3.5 17.9306 3.5 17.9137 3.5C17.8968 3.5 17.8799 3.5 17.863 3.5C17.8461 3.5 17.8292 3.5 17.8124 3.5C17.7955 3.5 17.7786 3.5 17.7617 3.5C17.7448 3.5 17.7279 3.5 17.7111 3.5C17.6942 3.5 17.6773 3.5 17.6604 3.5C17.6436 3.5 17.6267 3.5 17.6099 3.5C17.593 3.5 17.5761 3.5 17.5593 3.5C17.5424 3.5 17.5256 3.5 17.5088 3.5C17.4919 3.5 17.4751 3.5 17.4582 3.5C17.4414 3.5 17.4246 3.5 17.4077 3.5C17.3909 3.5 17.3741 3.5 17.3572 3.5C17.3404 3.5 17.3236 3.5 17.3068 3.5C17.29 3.5 17.2732 3.5 17.2563 3.5C17.2395 3.5 17.2227 3.5 17.2059 3.5C17.1891 3.5 17.1723 3.5 17.1555 3.5C17.1387 3.5 17.1219 3.5 17.1051 3.5C17.0883 3.5 17.0716 3.5 17.0548 3.5C17.038 3.5 17.0212 3.5 17.0044 3.5C16.9876 3.5 16.9709 3.5 16.9541 3.5C16.9373 3.5 16.9205 3.5 16.9038 3.5C16.887 3.5 16.8702 3.5 16.8535 3.5C16.8367 3.5 16.82 3.5 16.8032 3.5C16.7864 3.5 16.7697 3.5 16.7529 3.5C16.7362 3.5 16.7194 3.5 16.7027 3.5C16.6859 3.5 16.6692 3.5 16.6524 3.5C16.6357 3.5 16.619 3.5 16.6022 3.5C16.5855 3.5 16.5687 3.5 16.552 3.5C16.5353 3.5 16.5185 3.5 16.5018 3.5C16.4851 3.5 16.4684 3.5 16.4516 3.5C16.4349 3.5 16.4182 3.5 16.4015 3.5C16.3847 3.5 16.368 3.5 16.3513 3.5C16.3346 3.5 16.3179 3.5 16.3012 3.5C16.2844 3.5 16.2677 3.5 16.251 3.5C16.2343 3.5 16.2176 3.5 16.2009 3.5C16.1842 3.5 16.1675 3.5 16.1508 3.5C16.1341 3.5 16.1174 3.5 16.1007 3.5C16.084 3.5 16.0673 3.5 16.0506 3.5C16.0339 3.5 16.0172 3.5 16.0005 3.5C15.9838 3.5 15.9671 3.5 15.9504 3.5C15.9337 3.5 15.917 3.5 15.9003 3.5C15.8837 3.5 15.867 3.5 15.8503 3.5C15.8336 3.5 15.8169 3.5 15.8002 3.5C15.7835 3.5 15.7669 3.5 15.7502 3.5C15.7335 3.5 15.7168 3.5 15.7001 3.5C15.6835 3.5 15.6668 3.5 15.6501 3.5C15.6334 3.5 15.6168 3.5 15.6001 3.5C15.5834 3.5 15.5667 3.5 15.5501 3.5C15.5334 3.5 15.5167 3.5 15.5 3.5C15.4834 3.5 15.4667 3.5 15.45 3.5C15.4333 3.5 15.4167 3.5 15.4 3.5C15.3833 3.5 15.3667 3.5 15.35 3.5C15.3333 3.5 15.3167 3.5 15.3 3.5C15.2833 3.5 15.2667 3.5 15.25 3.5C15.2333 3.5 15.2167 3.5 15.2 3.5C15.1833 3.5 15.1667 3.5 15.15 3.5C15.1333 3.5 15.1167 3.5 15.1 3.5C15.0833 3.5 15.0667 3.5 15.05 3.5C15.0333 3.5 15.0167 3.5 15 3.5C14.9833 3.5 14.9667 3.5 14.95 3.5C14.9333 3.5 14.9167 3.5 14.9 3.5C14.8833 3.5 14.8667 3.5 14.85 3.5C14.8333 3.5 14.8167 3.5 14.8 3.5C14.7833 3.5 14.7667 3.5 14.75 3.5C14.7333 3.5 14.7167 3.5 14.7 3.5C14.6833 3.5 14.6667 3.5 14.65 3.5C14.6333 3.5 14.6167 3.5 14.6 3.5C14.5833 3.5 14.5667 3.5 14.55 3.5C14.5333 3.5 14.5166 3.5 14.5 3.5C14.4833 3.5 14.4666 3.5 14.4499 3.5C14.4333 3.5 14.4166 3.5 14.3999 3.5C14.3832 3.5 14.3666 3.5 14.3499 3.5C14.3332 3.5 14.3165 3.5 14.2999 3.5C14.2832 3.5 14.2665 3.5 14.2498 3.5C14.2331 3.5 14.2165 3.5 14.1998 3.5C14.1831 3.5 14.1664 3.5 14.1497 3.5C14.133 3.5 14.1163 3.5 14.0997 3.5C14.083 3.5 14.0663 3.5 14.0496 3.5C14.0329 3.5 14.0162 3.5 13.9995 3.5C13.9828 3.5 13.9661 3.5 13.9494 3.5C13.9327 3.5 13.916 3.5 13.8993 3.5C13.8826 3.5 13.8659 3.5 13.8492 3.5C13.8325 3.5 13.8158 3.5 13.7991 3.5C13.7824 3.5 13.7657 3.5 13.749 3.5C13.7323 3.5 13.7156 3.5 13.6988 3.5C13.6821 3.5 13.6654 3.5 13.6487 3.5C13.632 3.5 13.6153 3.5 13.5985 3.5C13.5818 3.5 13.5651 3.5 13.5484 3.5C13.5316 3.5 13.5149 3.5 13.4982 3.5C13.4815 3.5 13.4647 3.5 13.448 3.5C13.4313 3.5 13.4145 3.5 13.3978 3.5C13.381 3.5 13.3643 3.5 13.3476 3.5C13.3308 3.5 13.3141 3.5 13.2973 3.5C13.2806 3.5 13.2638 3.5 13.2471 3.5C13.2303 3.5 13.2136 3.5 13.1968 3.5C13.18 3.5 13.1633 3.5 13.1465 3.5C13.1298 3.5 13.113 3.5 13.0962 3.5C13.0795 3.5 13.0627 3.5 13.0459 3.5C13.0291 3.5 13.0124 3.5 12.9956 3.5C12.9788 3.5 12.962 3.5 12.9452 3.5C12.9284 3.5 12.9117 3.5 12.8949 3.5C12.8781 3.5 12.8613 3.5 12.8445 3.5C12.8277 3.5 12.8109 3.5 12.7941 3.5C12.7773 3.5 12.7605 3.5 12.7437 3.5C12.7268 3.5 12.71 3.5 12.6932 3.5C12.6764 3.5 12.6596 3.5 12.6428 3.5C12.6259 3.5 12.6091 3.5 12.5923 3.5C12.5754 3.5 12.5586 3.5 12.5418 3.5C12.5249 3.5 12.5081 3.5 12.4912 3.5C12.4744 3.5 12.4576 3.5 12.4407 3.5C12.4239 3.5 12.407 3.5 12.3901 3.5C12.3733 3.5 12.3564 3.5 12.3396 3.5C12.3227 3.5 12.3058 3.5 12.2889 3.5C12.2721 3.5 12.2552 3.5 12.2383 3.5C12.2214 3.5 12.2045 3.5 12.1876 3.5C12.1708 3.5 12.1539 3.5 12.137 3.5C12.1201 3.5 12.1032 3.5 12.0863 3.5C12.0694 3.5 12.0524 3.5 12.0355 3.5C12.0186 3.5 12.0017 3.5 11.9848 3.5C11.9679 3.5 11.9509 3.5 11.934 3.5C11.9171 3.5 11.9001 3.5 11.8832 3.5C11.8662 3.5 11.8493 3.5 11.8323 3.5C11.8154 3.5 11.7984 3.5 11.7815 3.5C11.7645 3.5 11.7476 3.5 11.7306 3.5C11.7136 3.5 11.6967 3.5 11.6797 3.5C11.6627 3.5 11.6457 3.5 11.6287 3.5C11.6117 3.5 11.5948 3.5 11.5778 3.5C11.5608 3.5 11.5438 3.5 11.5268 3.5C11.5097 3.5 11.4927 3.5 11.4757 3.5C11.4587 3.5 11.4417 3.5 11.4247 3.5C11.4076 3.5 11.3906 3.5 11.3736 3.5C11.3565 3.5 11.3395 3.5 11.3224 3.5C11.3054 3.5 11.2883 3.5 11.2713 3.5C11.2542 3.5 11.2372 3.5 11.2201 3.5C11.203 3.5 11.186 3.5 11.1689 3.5C11.1518 3.5 11.1347 3.5 11.1176 3.5C11.1005 3.5 11.0834 3.5 11.0663 3.5C11.0492 3.5 11.0321 3.5 11.015 3.5C10.9979 3.5 10.9808 3.5 10.9637 3.5C10.9465 3.5 10.9294 3.5 10.9123 3.5C10.8951 3.5 10.878 3.5 10.8609 3.5C10.8437 3.5 10.8266 3.5 10.8094 3.5C10.7922 3.5 10.7751 3.5 10.7579 3.5C10.7407 3.5 10.7236 3.5 10.7064 3.5C10.6892 3.5 10.672 3.5 10.6548 3.5C10.6376 3.5 10.6204 3.5 10.6032 3.5C10.586 3.5 10.5688 3.5 10.5516 3.5C10.5343 3.5 10.5171 3.5 10.4999 3.5C10.4827 3.5 10.4654 3.5 10.4482 3.5C10.4309 3.5 10.4137 3.5 10.3964 3.5C10.3792 3.5 10.3619 3.5 10.3446 3.5C10.3273 3.5 10.3101 3.5 10.2928 3.5C10.2755 3.5 10.2582 3.5 10.2409 3.5C10.2236 3.5 10.2063 3.5 10.189 3.5C10.1717 3.5 10.1544 3.5 10.137 3.5C10.1197 3.5 10.1024 3.5 10.085 3.5C10.0677 3.5 10.0504 3.5 10.033 3.5C10.0157 3.5 9.9983 3.5 9.98093 3.5C9.96356 3.5 9.94619 3.5 9.92881 3.5C9.91143 3.5 9.89404 3.5 9.87664 3.5C9.85925 3.5 9.84185 3.5 9.82443 3.5C9.80702 3.5 9.78961 3.5 9.77218 3.5C9.75476 3.5 9.73733 3.5 9.71989 3.5C9.70245 3.5 9.685 3.5 9.66754 3.5C9.65009 3.5 9.63263 3.5 9.61516 3.5C9.59769 3.5 9.58021 3.5 9.56273 3.5C9.54524 3.5 9.52775 3.5 9.51025 3.5C9.49275 3.5 9.47524 3.5 9.45772 3.5C9.44021 3.5 9.42268 3.5 9.40515 3.5C9.38762 3.5 9.37008 3.5 9.35253 3.5C9.33499 3.5 9.31743 3.5 9.29987 3.5C9.28231 3.5 9.26473 3.5 9.24715 3.5C9.22958 3.5 9.21199 3.5 9.19439 3.5C9.1768 3.5 9.15919 3.5 9.14158 3.5C9.12397 3.5 9.10635 3.5 9.08872 3.5C9.07109 3.5 9.05345 3.5 9.03581 3.5C9.01816 3.5 9.00051 3.5 8.98285 3.5C8.96519 3.5 8.94752 3.5 8.92984 3.5C8.91216 3.5 8.89447 3.5 8.87677 3.5C8.85908 3.5 8.84137 3.5 8.82366 3.5C8.80595 3.5 8.78822 3.5 8.77049 3.5C8.75276 3.5 8.73502 3.5 8.71727 3.5C8.69953 3.5 8.68177 3.5 8.664 3.5C8.64624 3.5 8.62846 3.5 8.61068 3.5C8.59289 3.5 8.5751 3.5 8.5573 3.5C8.5395 3.5 8.52169 3.5 8.50387 3.5C8.48605 3.5 8.46822 3.5 8.45038 3.5C8.43254 3.5 8.41469 3.5 8.39684 3.5C8.37898 3.5 8.36111 3.5 8.34324 3.5C8.32536 3.5 8.30748 3.5 8.28959 3.5C8.27169 3.5 8.25379 3.5 8.23588 3.5C8.21796 3.5 8.20004 3.5 8.18211 3.5C8.16418 3.5 8.14624 3.5 8.12829 3.5C8.11034 3.5 8.09237 3.5 8.0744 3.5C8.05643 3.5 8.03846 3.5 8.02047 3.5C8.00248 3.5 7.98448 3.5 7.96647 3.5C7.94846 3.5 7.93044 3.5 7.91241 3.5C7.89438 3.5 7.87634 3.5 7.8583 3.5C7.84025 3.5 7.82219 3.5 7.80412 3.5C7.78605 3.5 7.76797 3.5 7.74989 3.5C7.7318 3.5 7.7137 3.5 7.69559 3.5C7.67748 3.5 7.65936 3.5 7.64123 3.5C7.6231 3.5 7.60496 3.5 7.58681 3.5C7.56866 3.5 7.5505 3.5 7.53233 3.5C7.51416 3.5 7.49598 3.5 7.47779 3.5C7.4596 3.5 7.4414 3.5 7.42319 3.5C7.40497 3.5 7.38675 3.5 7.36852 3.5C7.35028 3.5 7.33204 3.5 7.31379 3.5C7.29553 3.5 7.27727 3.5 7.25899 3.5C7.24071 3.5 7.22243 3.5 7.20413 3.5C7.18583 3.5 7.16752 3.5 7.1492 3.5C7.13088 3.5 7.11255 3.5 7.09421 3.5C7.07587 3.5 7.05752 3.5 7.03916 3.5C7.02079 3.5 7.00242 3.5 6.98403 3.5C6.96565 3.5 6.94725 3.5 6.92885 3.5C6.91044 3.5 6.89202 3.5 6.87359 3.5C6.85516 3.5 6.83672 3.5 6.81827 3.5C6.79981 3.5 6.78135 3.5 6.76288 3.5C6.7444 3.5 6.72591 3.5 6.70742 3.5C6.68892 3.5 6.67041 3.5 6.65189 3.5C6.63337 3.5 6.61483 3.5 6.59629 3.5C6.57775 3.5 6.55919 3.5 6.54062 3.5C6.52206 3.5 6.50348 3.5 6.48489 3.5C6.4663 3.5 6.44769 3.5 6.42908 3.5C6.41046 3.5 6.39184 3.5 6.3732 3.5C6.35456 3.5 6.33591 3.5 6.31725 3.5C6.29859 3.5 6.27992 3.5 6.26123 3.5C6.24254 3.5 6.22385 3.5 6.20514 3.5C6.18643 3.5 6.1677 3.5 6.14897 3.5C6.13024 3.5 6.11149 3.5 6.09273 3.5C6.07397 3.5 6.0552 3.5 6.03642 3.5C6.01763 3.5 5.99884 3.5 5.98003 3.5C5.96122 3.5 5.9424 3.5 5.92357 3.5C5.90474 3.5 5.88589 3.5 5.86704 3.5C5.84818 3.5 5.82931 3.5 5.81042 3.5C5.79154 3.5 5.77265 3.5 5.75374 3.5C5.73483 3.5 5.71591 3.5 5.69698 3.5C5.67804 3.5 5.6591 3.5 5.64014 3.5C5.62118 3.5 5.60221 3.5 5.58322 3.5C5.56424 3.5 5.54524 3.5 5.52623 3.5C5.50722 3.5 5.48819 3.5 5.46916 3.5C5.45012 3.5 5.43107 3.5 5.41201 3.5C5.39295 3.5 5.37387 3.5 5.35478 3.5C5.33569 3.5 5.31659 3.5 5.29748 3.5C5.27836 3.5 5.25923 3.5 5.24009 3.5C5.22095 3.5 5.20179 3.5 5.18262 3.5C5.16346 3.5 5.14427 3.5 5.12508 3.5C5.10588 3.5 5.08667 3.5 5.06745 3.5C5.04823 3.5 5.02899 3.5 5.00974 3.5C4.99049 3.5 4.97123 3.5 4.95195 3.5C4.93268 3.5 4.91339 3.5 4.89408 3.5C4.87478 3.5 4.85546 3.5 4.83613 3.5C4.8168 3.5 4.79745 3.5 4.77809 3.5C4.75873 3.5 4.73936 3.5 4.71997 3.5C4.70058 3.5 4.68118 3.5 4.66177 3.5C4.64235 3.5 4.62292 3.5 4.60348 3.5C4.58403 3.5 4.56458 3.5 4.5451 3.5C4.52563 3.5 4.50615 3.5 4.48665 3.5C4.46715 3.5 4.44763 3.5 4.4281 3.5C4.40857 3.5 4.38903 3.5 4.36947 3.5C4.34992 3.5 4.33034 3.5 4.31076 3.5C4.29117 3.5 4.27157 3.5 4.25196 3.5C4.23234 3.5 4.21271 3.5 4.19307 3.5C4.17342 3.5 4.15376 3.5 4.13409 3.5C4.11441 3.5 4.09473 3.5 4.07502 3.5C4.05532 3.5 4.0356 3.5 4.01587 3.5C3.99614 3.5 3.97639 3.5 3.95663 3.5C3.93686 3.5 3.91709 3.5 3.89729 3.5C3.8775 3.5 3.85769 3.5 3.83787 3.5C3.81805 3.5 3.79821 3.5 3.77836 3.5C3.75851 3.5 3.73864 3.5 3.71876 3.5C3.69888 3.5 3.67898 3.5 3.65906 3.5C3.63915 3.5 3.61922 3.5 3.59928 3.5C3.57934 3.5 3.55938 3.5 3.5394 3.5C3.51943 3.5 3.49944 3.5 3.47943 3.5C3.45943 3.5 3.43941 3.5 3.41937 3.5C3.39933 3.5 3.37928 3.5 3.35921 3.5C3.33915 3.5 3.31906 3.5 3.29897 3.5C3.27887 3.5 3.25875 3.5 3.23862 3.5C3.21849 3.5 3.19835 3.5 3.17818 3.5C3.15802 3.5 3.13785 3.5 3.11765 3.5C3.09746 3.5 3.07725 3.5 3.05702 3.5C3.0368 3.5 3.01656 3.5 2.9963 3.5C2.97604 3.5 2.95577 3.5 2.93548 3.5C2.91519 3.5 2.89489 3.5 2.87456 3.5C2.85424 3.5 2.8339 3.5 2.81355 3.5C2.7932 3.5 2.77283 3.5 2.75244 3.5C2.73205 3.5 2.71165 3.5 2.69123 3.5C2.67081 3.5 2.65038 3.5 2.62992 3.5C2.60947 3.5 2.589 3.5 2.56852 3.5C2.54803 3.5 2.52753 3.5 2.50701 3.5C2.48649 3.5 2.46596 3.5 2.44541 3.5C2.42485 3.5 2.40429 3.5 2.3837 3.5C2.36312 3.5 2.34251 3.5 2.3219 3.5C2.30128 3.5 2.28064 3.5 2.25999 3.5C2.23934 3.5 2.21867 3.5 2.19798 3.5C2.1773 3.5 2.15659 3.5 2.13587 3.5C2.11515 3.5 2.09441 3.5 2.07366 3.5C2.05291 3.5 2.03213 3.5 2.01135 3.5C1.99056 3.5 1.96975 3.5 1.94893 3.5C1.9281 3.5 1.90726 3.5 1.88641 3.5C1.86555 3.5 1.84467 3.5 1.82378 3.5C1.80289 3.5 1.78198 3.5 1.76105 3.5C1.74012 3.5 1.71918 3.5 1.69822 3.5C1.67725 3.5 1.65628 3.5 1.63528 3.5C1.61428 3.5 1.59327 3.5 1.57223 3.5C1.5512 3.5 1.53015 3.5 1.50908 3.5C1.48801 3.5 1.46693 3.5 1.44582 3.5C1.42472 3.5 1.4036 3.5 1.38246 3.5C1.36132 3.5 1.34016 3.5 1.31899 3.5C1.29781 3.5 1.27662 3.5 1.25541 3.5C1.2342 3.5 1.21297 3.5 1.19172 3.5C1.17047 3.5 1.14921 3.5 1.12792 3.5C1.10664 3.5 1.08534 3.5 1.06402 3.5C1.0427 3.5 1.02136 3.5 1 3.5L1 4.5Z" fill="#C7C7C7"/>
</svg>
